<svg xmlns="http://www.w3.org/2000/svg" viewBox="0 0 32 32" width="32" height="32">
  <defs>
    <style>
      .icon { fill: #4f46e5; }
      @media (prefers-color-scheme: dark) {
        .icon { fill: #8b5cf6; }
      }
    </style>
  </defs>
  <!-- Simplified genie lamp icon -->
  <path class="icon" d="M16 4c-3 0-5 2-5 5v3c-1.5 1-2.5 2.5-2.5 4.5v7c0 1.5 1.5 3 3 3h9c1.5 0 3-1.5 3-3v-7c0-2-1-3.5-2.5-4.5V9c0-3-2-5-5-5zm0 2c2 0 3 1 3 3v2h-6V9c0-2 1-3 3-3zm-4 8h8v7c0 .5-.5 1-1 1h-6c-.5 0-1-.5-1-1v-7z"/>
  <!-- Genie wisp -->
  <circle class="icon" cx="20" cy="8" r="2" opacity="0.7"/>
  <circle class="icon" cx="22" cy="6" r="1.5" opacity="0.5"/>
  <circle class="icon" cx="24" cy="4" r="1" opacity="0.3"/>
</svg>